<?xml version="1.0" encoding="utf-8"?>
<svg version="1.1" xmlns:xlink="http://www.w3.org/1999/xlink" width="12px" height="12px" viewBox="22 274  12 12" xmlns="http://www.w3.org/2000/svg">
  <path d="M 28 274  C 31.36 274  34 276.64  34 280  C 34 283.36  31.36 286  28 286  C 24.64 286  22 283.36  22 280  C 22 276.64  24.64 274  28 274  Z " fill-rule="nonzero" fill="#ffffff" stroke="none" />
  <path d="M 28 274.5  C 31.08 274.5  33.5 276.92  33.5 280  C 33.5 283.08  31.08 285.5  28 285.5  C 24.92 285.5  22.5 283.08  22.5 280  C 22.5 276.92  24.92 274.5  28 274.5  Z " stroke-width="1" stroke="#797979" fill="none" />
  <path d="M 28 283  C 26.32 283  25 281.68  25 280  C 25 278.32  26.32 277  28 277  C 29.68 277  31 278.32  31 280  C 31 281.68  29.68 283  28 283  " fill-rule="nonzero" fill="#797979" stroke="none" />
</svg>