<?xml version="1.0" encoding="utf-8"?>
<svg version="1.1" xmlns:xlink="http://www.w3.org/1999/xlink" width="98px" height="65px" xmlns="http://www.w3.org/2000/svg">
  <defs>
    <linearGradient gradientUnits="userSpaceOnUse" x1="49" y1="0" x2="49" y2="65" id="LinearGradient13">
      <stop id="Stop14" stop-color="#ffffff" offset="0" />
      <stop id="Stop15" stop-color="#f2f2f2" offset="0" />
      <stop id="Stop16" stop-color="#e4e4e4" offset="1" />
      <stop id="Stop17" stop-color="#ffffff" offset="1" />
    </linearGradient>
    <mask fill="white" id="clip18">
      <path d="M 0 65  L 0 0  L 98 0  L 98 65  L 75.7272727272727 65  L 0 65  Z " fill-rule="evenodd" />
    </mask>
  </defs>
  <g transform="matrix(1 0 0 1 -326 -612 )">
    <path d="M 0 65  L 0 0  L 98 0  L 98 65  L 75.7272727272727 65  L 0 65  Z " fill-rule="nonzero" fill="url(#LinearGradient13)" stroke="none" transform="matrix(1 0 0 1 326 612 )" />
    <path d="M 0 65  L 0 0  L 98 0  L 98 65  L 75.7272727272727 65  L 0 65  Z " stroke-width="2" stroke="#015478" fill="none" transform="matrix(1 0 0 1 326 612 )" mask="url(#clip18)" />
  </g>
</svg>